<?xml version="1.0"?>
<svg xmlns="http://www.w3.org/2000/svg" height="512px" version="1.1" viewBox="-164 0 937 937.5" width="512px">
<g id="surface1">
<path d="M 598.9375 172.664062 L 234.625 51.230469 L 234.625 31.25 L 265.875 31.25 L 265.875 0 L 172.125 0 L 172.125 31.25 L 203.375 31.25 L 203.375 859.375 L 234.625 859.375 L 234.625 323.769531 L 598.9375 202.335938 C 605.351562 200.21875 609.683594 194.238281 609.683594 187.492188 C 609.683594 180.734375 605.351562 174.75 598.9375 172.636719 Z M 234.625 290.824219 L 234.625 84.175781 L 544.589844 187.5 Z M 234.625 290.824219 " style=" fill-rule:nonzero;fill-opacity:1;" stroke="#FFFFFF" fill="#FFFFFF"/>
<path d="M 250.984375 781.992188 L 249.515625 813.242188 C 352.574219 818.109375 406.5 845.878906 406.5 859.375 C 406.5 875.90625 335.308594 906.25 219 906.25 C 102.691406 906.25 31.5 875.90625 31.5 859.375 C 31.5 845.878906 85.425781 818.109375 188.484375 813.222656 L 187.015625 781.972656 C 100.859375 786.109375 0.25 808.832031 0.25 859.375 C 0.25 910.671875 110.296875 937.5 219 937.5 C 327.703125 937.5 437.75 910.671875 437.75 859.375 C 437.75 808.832031 337.140625 786.109375 250.984375 781.992188 Z M 250.984375 781.992188 " style=" fill-rule:nonzero;fill-opacity:1;" stroke="#FFFFFF" fill="#FFFFFF"/>
</g>
</svg>
