<?xml version="1.0"?>
<svg xmlns="http://www.w3.org/2000/svg" height="512px" version="1.1" viewBox="0 -15 968.74824 968" width="512px">
<g id="surface1">
<path d="M 961.789062 315.496094 L 493.042969 2.996094 C 487.796875 -0.5 480.949219 -0.5 475.699219 2.996094 L 6.957031 315.496094 C 1.234375 319.320312 -1.324219 326.4375 0.671875 333.03125 C 2.675781 339.613281 8.742188 344.117188 15.625 344.117188 L 140.625 344.117188 L 140.625 890.988281 C 140.625 916.878906 161.609375 937.863281 187.496094 937.863281 L 781.238281 937.863281 C 807.136719 937.863281 828.113281 916.878906 828.113281 890.988281 L 828.113281 344.117188 L 953.113281 344.117188 C 960.003906 344.117188 966.078125 339.613281 968.078125 333.03125 C 970.070312 326.4375 967.515625 319.320312 961.789062 315.496094 Z M 374.992188 906.613281 L 374.992188 578.488281 C 374.992188 569.867188 381.996094 562.863281 390.617188 562.863281 L 578.117188 562.863281 C 586.746094 562.863281 593.742188 569.867188 593.742188 578.488281 L 593.742188 906.613281 Z M 812.488281 312.867188 C 803.863281 312.867188 796.863281 319.871094 796.863281 328.492188 L 796.863281 890.988281 C 796.863281 899.617188 789.871094 906.613281 781.238281 906.613281 L 624.992188 906.613281 L 624.992188 578.488281 C 624.992188 552.605469 604.011719 531.617188 578.117188 531.617188 L 390.617188 531.617188 C 364.734375 531.617188 343.742188 552.605469 343.742188 578.488281 L 343.742188 906.613281 L 187.496094 906.613281 C 178.871094 906.613281 171.871094 899.617188 171.871094 890.988281 L 171.871094 328.492188 C 171.871094 319.871094 164.875 312.867188 156.25 312.867188 L 67.191406 312.867188 L 484.367188 34.753906 L 901.554688 312.867188 Z M 812.488281 312.867188 " style=" fill-rule:nonzero;fill-opacity:1;" stroke="#FFFFFF" fill="#FFFFFF"/>
</g>
</svg>
