<?xml version="1.0" encoding="iso-8859-1"?>
<!-- Generator: Adobe Illustrator 18.1.1, SVG Export Plug-In . SVG Version: 6.00 Build 0)  -->
<svg xmlns="http://www.w3.org/2000/svg" xmlns:xlink="http://www.w3.org/1999/xlink" version="1.1" id="Capa_1" x="0px" y="0px" viewBox="0 0 24.894 24.894" style="enable-background:new 0 0 24.894 24.894;" xml:space="preserve" width="512px" height="512px">
<g>
	<path d="M16.998,4.447c0-2.456-1.605-4.447-4.55-4.447C9.5,0,8.002,1.991,8.002,4.447v1.06h8.996   C16.998,5.507,16.998,4.447,16.998,4.447z M12.448,16.004c2.944,0,4.55-1.99,4.55-4.444V6.283H8.002v5.276   C8.002,14.014,9.5,16.004,12.448,16.004z M18.672,5.335v6.225c0,3.431-2.301,6.224-6.224,6.224c-3.921,0-6.224-2.793-6.224-6.224   V5.335c-0.991-0.99-1.778,0-1.778,0v6.21c0,0.003,0,0.01,0,0.015c0,4.118,3.112,7.507,7.113,7.947v2.763l-3.544,0.009l-0.903,2.615   h10.38l-0.885-2.624h-3.27v-2.763c4.001-0.442,7.111-3.831,7.111-7.947h0.001V5.335C19.36,4.245,18.672,5.335,18.672,5.335z" fill="#FFFFFF"/>
</g>
<g>
</g>
<g>
</g>
<g>
</g>
<g>
</g>
<g>
</g>
<g>
</g>
<g>
</g>
<g>
</g>
<g>
</g>
<g>
</g>
<g>
</g>
<g>
</g>
<g>
</g>
<g>
</g>
<g>
</g>
</svg>
