<?xml version="1.0"?>
<svg xmlns="http://www.w3.org/2000/svg" height="512px" version="1.1" viewBox="-109 0 937 937.5" width="512px">
<g id="surface1">
<path d="M 344 312.5 L 406.5 312.5 L 406.5 343.75 L 344 343.75 Z M 344 312.5 " style=" fill-rule:nonzero;fill-opacity:1;" stroke="#FFFFFF" fill="#FFFFFF"/>
<path d="M 422.125 312.5 L 453.375 312.5 L 453.375 343.75 L 422.125 343.75 Z M 422.125 312.5 " style=" fill-rule:nonzero;fill-opacity:1;" stroke="#FFFFFF" fill="#FFFFFF"/>
<path d="M 672.125 0 L 78.375 0 C 52.492188 0 31.5 20.992188 31.5 46.875 L 31.5 62.5 L 0.25 62.5 L 0.25 93.75 L 31.5 93.75 L 31.5 140.625 L 0.25 140.625 L 0.25 171.875 L 31.5 171.875 L 31.5 218.75 L 0.25 218.75 L 0.25 250 L 31.5 250 L 31.5 296.875 L 0.25 296.875 L 0.25 328.125 L 31.5 328.125 L 31.5 375 L 0.25 375 L 0.25 406.25 L 31.5 406.25 L 31.5 453.125 L 0.25 453.125 L 0.25 484.375 L 31.5 484.375 L 31.5 531.25 L 0.25 531.25 L 0.25 562.5 L 31.5 562.5 L 31.5 609.375 L 0.25 609.375 L 0.25 640.625 L 31.5 640.625 L 31.5 687.5 L 0.25 687.5 L 0.25 718.75 L 31.5 718.75 L 31.5 765.625 L 0.25 765.625 L 0.25 796.875 L 31.5 796.875 L 31.5 843.75 L 0.25 843.75 L 0.25 875 L 31.5 875 L 31.5 890.625 C 31.5 916.507812 52.492188 937.5 78.375 937.5 L 672.125 937.5 C 698.007812 937.5 719 916.507812 719 890.625 L 719 46.875 C 719 20.992188 698.007812 0 672.125 0 Z M 687.75 890.625 C 687.75 899.257812 680.757812 906.25 672.125 906.25 L 78.375 906.25 C 69.742188 906.25 62.75 899.257812 62.75 890.625 L 62.75 875 L 94 875 L 94 843.75 L 62.75 843.75 L 62.75 796.875 L 94 796.875 L 94 765.625 L 62.75 765.625 L 62.75 718.75 L 94 718.75 L 94 687.5 L 62.75 687.5 L 62.75 640.625 L 94 640.625 L 94 609.375 L 62.75 609.375 L 62.75 562.5 L 94 562.5 L 94 531.25 L 62.75 531.25 L 62.75 484.375 L 94 484.375 L 94 453.125 L 62.75 453.125 L 62.75 406.25 L 94 406.25 L 94 375 L 62.75 375 L 62.75 328.125 L 94 328.125 L 94 296.875 L 62.75 296.875 L 62.75 250 L 94 250 L 94 218.75 L 62.75 218.75 L 62.75 171.875 L 94 171.875 L 94 140.625 L 62.75 140.625 L 62.75 93.75 L 94 93.75 L 94 62.5 L 62.75 62.5 L 62.75 46.875 C 62.75 38.242188 69.742188 31.25 78.375 31.25 L 672.125 31.25 C 680.757812 31.25 687.75 38.242188 687.75 46.875 Z M 687.75 890.625 " style=" fill-rule:nonzero;fill-opacity:1;" stroke="#FFFFFF" fill="#FFFFFF"/>
<path d="M 219.9375 250 L 531.5 250 C 535.644531 250 539.617188 248.351562 542.546875 245.421875 L 577.703125 210.265625 C 590.265625 197.6875 590.265625 177.3125 577.703125 164.734375 L 542.546875 129.578125 C 539.617188 126.648438 535.644531 125 531.5 125 L 219.9375 125 C 202.164062 125.007812 187.757812 139.414062 187.75 157.1875 L 187.75 217.8125 C 187.757812 235.585938 202.164062 249.992188 219.9375 250 Z M 219.9375 156.25 L 525.140625 156.25 L 555.726562 186.839844 C 555.914062 187.015625 556.023438 187.261719 556.023438 187.507812 C 556.023438 187.769531 555.914062 188.011719 555.726562 188.183594 L 525.15625 218.75 L 219 217.828125 Z M 219.9375 156.25 " style=" fill-rule:nonzero;fill-opacity:1;" stroke="#FFFFFF" fill="#FFFFFF"/>
<path d="M 156.5 406.25 L 594 406.25 L 594 437.5 L 156.5 437.5 Z M 156.5 406.25 " style=" fill-rule:nonzero;fill-opacity:1;" stroke="#FFFFFF" fill="#FFFFFF"/>
<path d="M 156.5 500 L 594 500 L 594 531.25 L 156.5 531.25 Z M 156.5 500 " style=" fill-rule:nonzero;fill-opacity:1;" stroke="#FFFFFF" fill="#FFFFFF"/>
<path d="M 156.5 593.75 L 594 593.75 L 594 625 L 156.5 625 Z M 156.5 593.75 " style=" fill-rule:nonzero;fill-opacity:1;" stroke="#FFFFFF" fill="#FFFFFF"/>
<path d="M 156.5 687.5 L 594 687.5 L 594 718.75 L 156.5 718.75 Z M 156.5 687.5 " style=" fill-rule:nonzero;fill-opacity:1;" stroke="#FFFFFF" fill="#FFFFFF"/>
<path d="M 109.625 62.5 L 140.875 62.5 L 140.875 93.75 L 109.625 93.75 Z M 109.625 62.5 " style=" fill-rule:nonzero;fill-opacity:1;" stroke="#FFFFFF" fill="#FFFFFF"/>
<path d="M 109.625 843.75 L 140.875 843.75 L 140.875 875 L 109.625 875 Z M 109.625 843.75 " style=" fill-rule:nonzero;fill-opacity:1;" stroke="#FFFFFF" fill="#FFFFFF"/>
<path d="M 281.5 781.25 L 469 781.25 L 469 812.5 L 281.5 812.5 Z M 281.5 781.25 " style=" fill-rule:nonzero;fill-opacity:1;" stroke="#FFFFFF" fill="#FFFFFF"/>
<path d="M 484.625 781.25 L 515.875 781.25 L 515.875 812.5 L 484.625 812.5 Z M 484.625 781.25 " style=" fill-rule:nonzero;fill-opacity:1;" stroke="#FFFFFF" fill="#FFFFFF"/>
<path d="M 234.625 781.25 L 265.875 781.25 L 265.875 812.5 L 234.625 812.5 Z M 234.625 781.25 " style=" fill-rule:nonzero;fill-opacity:1;" stroke="#FFFFFF" fill="#FFFFFF"/>
<path d="M 297.125 312.5 L 328.375 312.5 L 328.375 343.75 L 297.125 343.75 Z M 297.125 312.5 " style=" fill-rule:nonzero;fill-opacity:1;" stroke="#FFFFFF" fill="#FFFFFF"/>
</g>
</svg>
