<?xml version="1.0"?>
<svg xmlns="http://www.w3.org/2000/svg" height="512px" version="1.1" viewBox="-62 0 952 952.50017" width="512px">
<g id="surface1">
<path d="M 502.890625 345.382812 L 571.503906 276.773438 C 577.789062 279.816406 584.679688 281.421875 591.667969 281.457031 C 594.777344 281.457031 597.890625 281.152344 600.9375 280.546875 C 603.941406 279.964844 606.882812 279.070312 609.707031 277.894531 C 610.289062 277.667969 610.804688 277.273438 611.367188 277.011719 C 613.589844 276.039062 615.734375 274.898438 617.773438 273.589844 C 620.351562 271.871094 622.753906 269.894531 624.949219 267.699219 C 633.800781 258.984375 638.734375 247.050781 638.632812 234.625 C 638.632812 234.625 638.632812 234.503906 638.632812 234.429688 C 638.632812 234.34375 638.632812 234.285156 638.632812 234.222656 L 638.421875 234.222656 C 638.429688 208.597656 617.847656 187.734375 592.21875 187.378906 L 592.519531 187.378906 C 586.425781 187.371094 580.394531 188.566406 574.769531 190.910156 C 572.601562 191.863281 570.515625 192.984375 568.523438 194.246094 C 567.957031 194.605469 567.316406 194.824219 566.765625 195.203125 C 547.277344 208.140625 540.367188 233.488281 550.570312 254.535156 L 481.875 323.148438 L 248.996094 90.15625 C 242.996094 84.140625 233.269531 84.027344 227.136719 89.90625 C 124.910156 192.746094 93.761719 346.59375 147.941406 481.09375 C 143.683594 484.449219 139.621094 488.039062 135.769531 491.855469 C 110.027344 517.609375 95.269531 552.367188 94.628906 588.789062 L 0.824219 932.683594 C -0.492188 937.402344 0.484375 942.472656 3.464844 946.371094 C 6.4375 950.269531 11.070312 952.527344 15.976562 952.5 L 438.277344 952.5 C 443.039062 952.480469 447.546875 950.308594 450.523438 946.589844 C 453.492188 942.863281 454.625 937.988281 453.578125 933.34375 L 399.835938 696.886719 C 521.097656 725.027344 648.285156 688.445312 736.085938 600.1875 C 741.96875 594.046875 741.867188 584.332031 735.84375 578.328125 Z M 602.601562 226.710938 C 605.589844 229.679688 607.21875 233.753906 607.085938 237.960938 C 607.140625 242.027344 605.515625 245.9375 602.601562 248.792969 C 601.164062 250.230469 599.425781 251.355469 597.523438 252.085938 C 591.695312 254.378906 585.066406 253.101562 580.523438 248.792969 C 574.433594 242.691406 574.433594 232.8125 580.523438 226.710938 C 582.640625 224.707031 585.300781 223.371094 588.164062 222.871094 C 589.261719 222.53125 590.402344 222.316406 591.550781 222.230469 C 591.695312 222.222656 591.847656 222.222656 591.988281 222.230469 C 595.972656 222.222656 599.792969 223.816406 602.585938 226.652344 Z M 158.601562 516.066406 C 201.285156 473.386719 270.496094 473.390625 313.171875 516.074219 C 355.863281 558.765625 355.863281 627.960938 313.171875 670.648438 C 270.496094 713.332031 201.285156 713.339844 158.601562 670.660156 C 137.902344 650.261719 126.253906 622.417969 126.253906 593.359375 C 126.253906 564.300781 137.902344 536.460938 158.601562 516.066406 Z M 37.722656 921.269531 L 110.113281 655.820312 C 133.480469 702.960938 181.234375 733.089844 233.84375 733.863281 C 286.453125 734.648438 335.078125 705.953125 359.828125 659.519531 L 419.304688 921.269531 Z M 392.789062 663.628906 L 376.207031 590.695312 C 375.417969 542.949219 350.386719 498.882812 309.78125 473.757812 C 269.175781 448.636719 218.574219 445.898438 175.496094 466.511719 C 131.089844 350.664062 155.429688 219.699219 238.484375 127.542969 L 701.652344 590.753906 C 618.199219 666.765625 501.421875 694.316406 392.789062 663.628906 Z M 392.789062 663.628906 " style=" fill-rule:nonzero;fill-opacity:1;" stroke="#FFFFFF" fill="#FFFFFF"/>
<path d="M 235.878906 671.433594 C 273.125 671.433594 305.183594 645.125 312.445312 608.601562 C 319.71875 572.0625 300.167969 535.484375 265.75 521.230469 C 231.34375 506.980469 191.648438 519.023438 170.957031 549.996094 C 150.273438 580.964844 154.335938 622.242188 180.683594 648.578125 C 195.285156 663.261719 215.160156 671.496094 235.878906 671.433594 Z M 202.761719 560.226562 C 221.0625 541.933594 250.71875 541.945312 269.011719 560.242188 C 287.304688 578.542969 287.300781 608.210938 269.003906 626.5 C 250.460938 644.171875 221.304688 644.171875 202.761719 626.5 C 184.449219 608.199219 184.449219 578.527344 202.761719 560.226562 Z M 202.761719 560.226562 " style=" fill-rule:nonzero;fill-opacity:1;" stroke="#FFFFFF" fill="#FFFFFF"/>
<path d="M 760.535156 68.582031 C 716.691406 24.589844 657.117188 -0.09375 595.019531 0 L 595.019531 31.230469 C 707.128906 31.230469 798.011719 122.113281 798.011719 234.222656 L 829.242188 234.222656 C 829.320312 172.058594 804.589844 112.429688 760.535156 68.582031 Z M 760.535156 68.582031 " style=" fill-rule:nonzero;fill-opacity:1;" stroke="#FFFFFF" fill="#FFFFFF"/>
<path d="M 595.019531 62.460938 L 595.019531 93.6875 C 632.292969 93.664062 668.046875 108.46875 694.414062 134.828125 C 720.773438 161.1875 735.570312 196.945312 735.550781 234.222656 L 766.78125 234.222656 C 766.78125 139.363281 689.878906 62.460938 595.019531 62.460938 Z M 595.019531 62.460938 " style=" fill-rule:nonzero;fill-opacity:1;" stroke="#FFFFFF" fill="#FFFFFF"/>
<path d="M 650.382812 178.988281 C 665.113281 193.589844 673.351562 213.488281 673.230469 234.222656 L 704.460938 234.363281 C 704.542969 174.101562 655.816406 125.132812 595.550781 124.917969 L 595.019531 124.917969 L 595.171875 156.148438 C 615.898438 156.03125 635.804688 164.265625 650.382812 178.988281 Z M 650.382812 178.988281 " style=" fill-rule:nonzero;fill-opacity:1;" stroke="#FFFFFF" fill="#FFFFFF"/>
<path d="M 189.035156 827.582031 L 267.109375 827.582031 L 267.109375 858.8125 L 189.035156 858.8125 Z M 189.035156 827.582031 " style=" fill-rule:nonzero;fill-opacity:1;" stroke="#FFFFFF" fill="#FFFFFF"/>
<path d="M 282.722656 827.582031 L 313.953125 827.582031 L 313.953125 858.8125 L 282.722656 858.8125 Z M 282.722656 827.582031 " style=" fill-rule:nonzero;fill-opacity:1;" stroke="#FFFFFF" fill="#FFFFFF"/>
<path d="M 142.191406 827.582031 L 173.421875 827.582031 L 173.421875 858.8125 L 142.191406 858.8125 Z M 142.191406 827.582031 " style=" fill-rule:nonzero;fill-opacity:1;" stroke="#FFFFFF" fill="#FFFFFF"/>
</g>
</svg>
